<?xml version="1.0" standalone="no"?>
<!DOCTYPE svg PUBLIC "-//W3C//DTD SVG 20010904//EN"
 "http://www.w3.org/TR/2001/REC-SVG-20010904/DTD/svg10.dtd">
<svg version="1.0" xmlns="http://www.w3.org/2000/svg"
 width="512.000000pt" height="512.000000pt" viewBox="0 0 512.000000 512.000000"
 preserveAspectRatio="xMidYMid meet">
<metadata>
Created by potrace 1.14, written by Peter Selinger 2001-2017
</metadata>
<g transform="translate(0.000000,512.000000) scale(0.100000,-0.100000)"
fill="#000000" stroke="none">
<path d="M2557 5094 c-1 -1 -33 -4 -72 -7 -652 -57 -1292 -404 -1715 -930 -39
-49 -78 -101 -88 -115 -9 -15 -19 -29 -22 -32 -16 -14 -118 -184 -166 -275
-127 -244 -233 -576 -260 -813 -3 -26 -7 -63 -11 -82 -9 -62 -11 -443 -2 -515
16 -133 20 -158 35 -239 29 -153 89 -349 150 -494 45 -106 136 -281 175 -340
16 -24 29 -45 29 -48 0 -6 137 -197 158 -220 9 -11 30 -35 45 -54 58 -71 225
-235 322 -314 215 -177 419 -297 675 -399 106 -42 260 -92 320 -103 14 -3 50
-11 80 -19 30 -7 78 -17 105 -21 28 -3 59 -8 70 -10 46 -9 167 -18 255 -18
l95 -1 -3 724 c-1 398 -4 726 -6 729 -3 2 -114 4 -248 5 l-243 0 0 -450 0
-450 -30 7 c-155 37 -347 118 -509 216 -267 163 -501 390 -668 649 -130 202
-249 497 -284 705 -3 14 -6 36 -9 50 -5 26 -12 84 -20 155 -7 59 -7 290 0 370
16 200 70 410 156 614 178 419 509 780 912 995 188 100 419 178 627 211 19 3
42 8 50 10 13 4 147 14 245 19 l30 1 0 248 0 248 -88 -3 c-48 -1 -89 -3 -90
-4z"/>
<path d="M2909 5062 c0 -34 0 -422 0 -442 1 -11 12 -16 39 -16 44 -1 179 -13
207 -19 11 -3 31 -7 45 -9 129 -20 338 -102 475 -184 281 -169 518 -444 636
-740 85 -211 114 -367 113 -602 0 -139 -5 -198 -22 -287 -138 -693 -706 -1204
-1390 -1249 -54 -4 -98 -8 -100 -9 -7 -6 -5 -465 2 -472 18 -18 280 8 431 43
611 140 1130 568 1385 1141 86 194 136 373 167 598 9 65 11 384 3 450 -24 195
-47 298 -102 460 -35 106 -131 309 -190 404 -206 330 -504 598 -856 767 -88
42 -324 126 -387 138 -16 3 -66 12 -111 20 -92 17 -154 24 -266 31 l-78 4 -1
-27z"/>
</g>
</svg>
